<?xml version="1.0" encoding="UTF-8"?>
<!-- Created with Grafika (https://www.grafika.cc/) -->
<svg xmlns="http://www.w3.org/2000/svg" xmlns:svg="http://www.w3.org/2000/svg" xmlns:xlink="http://www.w3.org/1999/xlink" width="2048" height="2048" viewBox="0 0 700 700" preserveAspectRatio="xMidYMid meet">
	<rect x="0" y="0" width="700" height="700" rx="125" ry="125" id="Rectangle 1" style="fill:#FFFFFF;" />
	<rect x="40" y="40" width="620" height="620" rx="100" ry="100" id="Rectangle" style="fill:#000814;" />
	<g id="Text">
		<path d="M338.02 528.42 Q309.45 528.42 281.26 526.59 Q253.06 524.88 222.54 518.41 L222.54 182.35 Q246.47 177.96 274.91 175.76 Q303.47 173.44 328.01 173.44 Q360.97 173.44 388.68 178.2 Q416.51 182.96 436.53 194.44 Q456.55 205.91 467.78 224.71 Q479.01 243.39 479.01 270.85 Q479.01 312.36 438.97 336.4 Q472.05 348.85 484.01 370.46 Q495.98 391.94 495.98 418.92 Q495.98 473.37 456.18 500.95 Q416.51 528.42 338.02 528.42 L338.02 528.42 Z M298.47 372.9 L298.47 462.38 Q307.01 463.36 317.02 463.97 Q327.03 464.45 338.99 464.45 Q374.03 464.45 395.51 454.44 Q417 444.44 417 417.46 Q417 393.41 398.93 383.16 Q380.99 372.9 347.54 372.9 L298.47 372.9 L298.47 372.9 Z M298.47 313.45 L336.55 313.45 Q372.44 313.45 387.94 304.18 Q403.45 294.9 403.45 274.39 Q403.45 253.4 387.46 244.97 Q371.47 236.43 340.46 236.43 Q330.45 236.43 318.97 236.67 Q307.5 236.92 298.47 237.89 L298.47 313.45 L298.47 313.45 Z" fill="#FFFFFF" />
	</g>
</svg>